<svg xmlns="http://www.w3.org/2000/svg" viewBox="0 0 64 64" role="img" aria-label="LS favicon">
  <rect width="64" height="64" rx="14" fill="#0a0a0a"/>
  <rect x="4" y="4" width="56" height="56" rx="10" fill="#111111" stroke="#2a2a2a" stroke-width="2"/>
  <path d="M21 18v28h18v-6H28V18z" fill="#f5f5f5"/>
  <path d="M47 22c-1.7-2.7-4.7-4-8.9-4-4.5 0-7.8 1.5-10 4.5l4.9 4c1.3-1.7 2.9-2.6 5-2.6 2.3 0 3.5.8 3.5 2.3 0 .9-.5 1.7-1.5 2.2-.5.3-1.8.8-3.9 1.4-2.7.8-4.6 1.9-5.8 3.1-1.2 1.2-1.8 2.9-1.8 5 0 2.7 1 4.8 2.9 6.3 1.9 1.6 4.5 2.4 7.8 2.4 4.9 0 8.5-1.8 10.8-5.3l-5.3-3.7c-1.4 2-3.2 3-5.5 3-2.5 0-3.8-.9-3.8-2.6 0-1.1.7-1.9 2.1-2.5.3-.1 1.6-.5 3.7-1.1 5-1.5 7.5-4.5 7.5-9 0-1.9-.5-3.6-1.6-5.1Z" fill="#ef4444"/>
</svg>
